<?xml version="1.0" encoding="UTF-8" standalone="no"?>
<!DOCTYPE svg PUBLIC "-//W3C//DTD SVG 1.1//EN" "http://www.w3.org/Graphics/SVG/1.1/DTD/svg11.dtd">
<svg width="100%" height="100%" viewBox="0 0 1000 500" version="1.1" xmlns="http://www.w3.org/2000/svg" xmlns:xlink="http://www.w3.org/1999/xlink" xml:space="preserve" xmlns:serif="http://www.serif.com/" style="fill-rule:evenodd;clip-rule:evenodd;stroke-linejoin:round;stroke-miterlimit:2;">
    <g transform="matrix(1,0,0,1,37.412,-1.13687e-13)">
        <g id="Flag" transform="matrix(0.833333,0,0,0.833333,-251.833,0)">
            <g>
                <g transform="matrix(1.6945,0,0,1.2,-101.072,1.36424e-13)">
                    <path d="M947.801,-0C965.201,166.667 982.6,333.333 1000,500L591.369,500C566.222,333.333 541.076,166.667 515.929,-0L947.801,-0Z" style="fill:rgb(213,43,30);"/>
                </g>
                <g transform="matrix(1.46832,0,0,1.2,-567.317,1.36424e-13)">
                    <path d="M912.939,-0C941.959,166.667 970.98,333.333 1000,500L591.369,500C562.349,333.333 533.328,166.667 504.308,-0L912.939,-0Z" style="fill:white;"/>
                </g>
                <g transform="matrix(1.2,0,0,1.2,301,0)">
                    <path d="M251.33,461.458C245.08,461.458 238.83,461.458 232.58,461.458C227.758,431.493 222.937,401.528 218.115,371.563C218.089,371.41 218.061,371.258 218.028,371.107C216.879,365.712 211.584,361.211 206.024,361.211C205.473,361.211 204.921,361.257 204.378,361.354C175.668,366.597 146.959,371.84 118.25,377.083C119.91,365.972 121.571,354.861 123.231,343.75C123.697,340.774 121.916,337.799 119.528,336.146C81.217,309.687 42.906,283.229 4.596,256.771C11.224,253.333 17.853,249.896 24.482,246.458C27.527,244.858 27.765,240.995 26.27,238.229C15.58,218.368 4.89,198.507 -5.799,178.646C13.871,182.639 33.541,186.632 53.211,190.625C56.161,191.214 59.301,189.772 59.972,186.667C61.791,178.09 63.609,169.514 65.428,160.937C83.474,176.701 101.52,192.465 119.566,208.229C121.044,209.502 122.961,210.342 124.93,210.342C128.608,210.342 131.012,207.108 130.258,203.571C130.165,203.134 130.031,202.706 129.864,202.292C114.998,165.764 100.132,129.236 85.266,92.708C98.019,99.271 110.771,105.833 123.523,112.396C124.637,112.976 125.885,113.325 127.145,113.325C129.53,113.325 131.729,111.931 132.403,109.583C139.108,86.944 145.812,64.306 152.517,41.667C168.868,64.306 185.219,86.944 201.57,109.583C203.12,111.757 205.711,113.325 208.423,113.325C209.558,113.325 210.7,113.031 211.648,112.396C221.604,105.833 231.56,99.271 241.516,92.708C242.215,129.236 242.914,165.764 243.614,202.292C243.622,202.722 243.675,203.15 243.764,203.571C244.549,207.256 248.177,210.342 251.978,210.342C253.698,210.342 255.405,209.639 256.441,208.229C267.77,192.465 279.099,176.701 290.428,160.938C295.901,169.514 301.374,178.09 306.847,186.667C308.587,189.377 312.026,191.338 315.295,190.625C333.263,186.632 351.232,182.639 369.201,178.646C366.974,198.507 364.747,218.368 362.52,238.229C362.118,241.739 364.698,245.12 367.815,246.458C375.909,249.896 384.002,253.333 392.096,256.771C365.059,283.229 338.022,309.687 310.986,336.146C308.923,338.171 309.16,341.411 310.523,343.75C316.918,354.861 323.313,365.972 329.708,377.083C298.764,371.84 267.821,366.597 236.878,361.354C236.313,361.261 235.742,361.211 235.17,361.211C231.81,361.211 228.672,363.134 227.583,366.406C227.079,367.92 227.052,369.554 227.382,371.107C227.415,371.259 227.451,371.411 227.49,371.563C235.437,401.528 243.383,431.493 251.33,461.458Z" style="fill:rgb(213,43,30);"/>
                </g>
            </g>
        </g>
    </g>
    <g id="Crying-beaver-2" serif:id="Crying beaver 2" transform="matrix(1.2309,0,0,1.2309,-115.915,-19.4053)">
        <g id="Beaver" transform="matrix(7.97948,0,0,7.97948,424.749,-2.90019)">
            <path d="M17.36,8.23C16.33,8.07 15.3,7.95 14.26,7.89C13.83,7.86 13.36,7.85 12.99,8.07C12.68,8.25 12.48,8.57 12.32,8.89C11.42,10.63 11.31,12.76 12.03,14.58C12.21,15.03 12.56,15.53 13.03,15.45C13.22,15.42 13.37,15.3 13.52,15.18C15,14.02 16.37,12.73 17.6,11.32C17.81,11.08 18.01,10.69 17.76,10.48" style="fill:rgb(130,91,78);fill-rule:nonzero;"/>
            <path d="M47.3,12.38C50.76,13.35 51.62,12.36 54.22,12.56C57.55,12.81 57.15,15.96 56.66,17.7C56.03,19.93 54.79,21.74 53.02,23.23C52.72,23.48 52.38,23.74 51.98,23.77C51.51,23.81 51.08,23.52 50.72,23.22C48.36,21.29 46.86,18.34 46.69,15.3" style="fill:rgb(130,91,78);fill-rule:nonzero;"/>
            <g transform="matrix(0.125322,0,0,0.125322,-53.3555,0.363457)">
                <path d="M494.784,502.022L512.866,483.94L494.784,502.022C481.265,491.394 435.14,449.26 456.71,383.386C457.025,382.42 457.352,381.47 457.689,380.535L513.408,436.254L513.408,484.786L513.408,436.254L457.689,380.535C475.649,330.675 522.78,325.216 522.78,325.216L652.366,327.769L831.107,161.158C831.107,161.158 955.028,267.764 1015.35,336.547C1075.68,405.33 1142.39,537.071 1134.88,612.317C1127.38,687.644 1085.41,748.208 1058.44,777.253C1031.47,806.298 927.02,878.513 814.988,858.006C702.956,837.498 671.677,834.306 575.843,748.128C480.01,661.95 498.362,504.674 498.362,504.674C498.362,504.674 497.019,503.778 494.784,502.022Z" style="fill:rgb(179,138,109);"/>
            </g>
            <path d="M48.27,13.23C42.68,5.39 36.47,3.84 29.64,3.84C22.27,3.84 15.28,9.25 12.06,13.53C9.46,17 6.22,22.64 5.76,29.13C5.4,34.23 7.02,39 12.06,42.53C17.1,46.06 37.13,50.27 45.35,44.62C52.55,39.67 54.99,33.02 54.27,27.44C53.76,23.43 52.6,19.3 48.27,13.23Z" style="fill:rgb(179,138,109);fill-rule:nonzero;"/>
            <path d="M39.09,42.94L38.36,46.31C41.49,45.93 44.81,39.87 44.81,39.87L44.85,43.92C48.85,41.75 50.92,32.43 50.92,32.43C51.28,36.95 51.68,47.01 38.16,48.76C33.26,49.4 28.13,47.38 28.13,47.38C28.13,47.38 35.75,46.88 39.09,42.94Z" style="fill:rgb(130,91,78);fill-rule:nonzero;"/>
        </g>
        <g id="cry-right" serif:id="cry right" transform="matrix(2.85562,0,0,2.85562,460.98,0.657405)">
            <path d="M111.74,161.427C111.74,158.357 106.19,155.807 99.22,155.647L95.379,54.127L95.319,52.67C95.109,52.51 94.899,52.32 94.729,52.11C94.729,52.11 94.669,52.03 94.549,51.89C94.489,51.82 94.419,51.73 94.339,51.62C94.249,51.51 94.159,51.39 94.079,51.33C93.909,51.16 93.699,50.95 93.459,50.71C93.209,50.46 92.909,50.19 92.599,49.92C91.959,49.38 92.95,48.88 92.15,48.53C91.35,48.2 90.54,48 89.71,48.01L89.58,48.01L89.29,48.02C89.03,48.02 89.08,48.04 89,48.05C88.93,48.04 88.65,48.11 88.46,48.14C88.06,48.24 87.64,48.36 87.24,48.53C86.44,48.88 82.906,49.013 82.626,49.183L81.41,160.917C76.88,162.287 71.92,164.587 71.92,167.157C71.92,171.347 79.75,174.757 89.41,174.757C99.07,174.757 106.9,171.367 106.9,167.177C106.9,166.757 106.8,166.357 106.65,165.957C109.75,164.897 111.74,163.267 111.74,161.427Z" style="fill:rgb(41,182,246);fill-rule:nonzero;"/>
            <path d="M86.38,157.297C86.47,160.547 84.51,163.487 81.49,164.697C77.82,166.167 74.32,168.237 79.56,169.477C79.56,169.477 83.51,171.417 85.52,170.407C86.42,169.957 86.11,169.217 85.49,168.547C84.81,167.817 85.15,166.637 86.12,166.417L86.98,166.227C89.16,165.747 90.69,163.777 90.63,161.547L89.02,45.49L85.73,45.22L86.38,157.297Z" style="fill:rgb(129,212,250);fill-rule:nonzero;"/>
        </g>
        <g id="cry-left" serif:id="cry left" transform="matrix(2.85562,0,0,2.85562,424.039,-2.43499)">
            <path d="M46.88,159.166C46.88,159.166 42.299,49.579 42.179,49.429C42.119,49.359 42.049,49.269 41.969,49.159C41.879,49.049 41.789,48.929 41.709,48.869C41.539,48.699 41.329,48.489 41.089,48.249C40.839,47.999 40.539,47.729 40.229,47.459C39.589,46.919 41.63,46.419 40.83,46.069C40.03,45.739 39.22,45.539 38.39,45.549L38.26,45.549L37.97,45.559C37.71,45.559 37.76,45.579 37.68,45.589C37.61,45.579 37.33,45.649 37.14,45.679C36.74,45.779 36.32,45.899 35.92,46.069C35.12,46.419 34.36,46.919 33.72,47.459C33.09,47.999 34.311,48.529 33.951,48.929C33.591,49.339 33.381,49.569 33.381,49.569L33.781,49.909C33.751,49.939 33.721,49.959 33.691,49.989L29.08,153.886C22.1,154.046 16.56,156.576 16.56,159.646C16.56,161.486 18.55,163.136 21.64,164.186C21.49,164.586 21.39,164.996 21.39,165.416C21.39,169.606 29.22,173.006 38.88,173.006C48.54,173.006 56.37,169.586 56.37,165.396C56.37,162.826 51.4,160.536 46.88,159.166Z" style="fill:rgb(41,182,246);fill-rule:nonzero;"/>
            <path d="M35.25,49.14L33.5,153.076C33.45,154.686 32.1,155.946 30.5,155.876C28.42,155.786 25.57,156.026 23.23,157.476C21.97,158.256 21.45,160.246 22.6,161.356C23.86,162.566 27.16,161.516 28.81,161.346C29.53,161.276 30.48,161.346 30.67,162.046C30.78,162.446 30.54,162.876 30.21,163.116C29.88,163.366 29.47,163.466 29.07,163.586C28.41,163.776 27.75,164.006 27.23,164.456C26.72,164.906 26.39,165.626 26.57,166.286C26.81,167.136 27.75,167.546 28.58,167.836C30.04,168.366 31.53,168.896 33.08,168.966C33.17,167.866 31.46,167.106 31.8,166.056C31.92,165.686 32.27,165.446 32.62,165.276C33.56,164.836 34.63,164.746 35.64,164.506C37.3,164.116 40.3,163.276 39.52,160.996C39.26,160.246 38.73,159.636 38.28,158.976C36.59,156.476 36.26,105.6 36.56,102.6C36.8,100.26 37.4,63.23 37.8,48C37.9,44.35 36.71,47.71 35.52,47.8C35.42,47.93 35.35,49.02 35.25,49.14Z" style="fill:rgb(129,212,250);fill-rule:nonzero;"/>
        </g>
        <g id="Beaver-FG" serif:id="Beaver FG" transform="matrix(7.97948,0,0,7.97948,425.749,-2.90019)">
            <g transform="matrix(0.125322,0,0,0.125322,-45.2653,-1.72935)">
                <path d="M439.4,434.062L439.66,510.331L406.772,486.561L400.965,430.97L439.4,434.062Z" style="fill:rgb(179,138,109);"/>
            </g>
            <g transform="matrix(0.9523,-0.3051,0.3051,0.9523,-3.6671,11.9302)">
                <ellipse cx="36.34" cy="17.7" rx="2.43" ry="3.15" style="fill:rgb(33,33,33);"/>
            </g>
            <path d="M15.62,32.75C15.1,36.39 16.71,41.87 18.06,41.79C19.18,41.72 19.44,39.5 19.44,39.5C19.44,39.5 20.4,42.34 22.16,42.16C23.84,41.98 23.76,35.97 24.19,33.03L18.49,30.7L15.62,32.75Z" style="fill:rgb(255,236,179);fill-rule:nonzero;"/>
            <path d="M11.84,15.91C12.17,14.89 13.1,13.56 14.61,13.6C16.22,13.65 15.94,15.96 15.39,17.18C14.83,18.4 13.54,19.58 12.33,18.82C11.5,18.3 11.61,16.63 11.84,15.91Z" style="fill:rgb(33,33,33);fill-rule:nonzero;"/>
            <path d="M21.8,18.45C21.3,17.79 20.35,17.7 19.74,18.25C18.21,19.64 16.73,20.92 16.09,21.94C15.67,22.63 15.3,24.02 16.11,25.01C16.92,26 19.47,28.07 19.47,28.07C19.47,28.07 22.7,26.56 23.7,25.85C24.91,24.98 25.18,23.13 24.15,21.6C23.74,20.99 22.6,19.51 21.8,18.45Z" style="fill:rgb(33,33,33);fill-rule:nonzero;"/>
            <path d="M28.47,32.39C29.31,31.08 28.37,30.46 27.82,31.1C27.2,31.81 25.56,32.94 23.31,32.15C22.06,31.71 21.22,31.31 20.74,29.88C20.4,28.86 20.52,27.49 20.53,26.43C20.53,25.95 18.39,25.9 18.25,26.3C17.96,27.12 17.98,27.97 17.95,28.83C17.92,29.78 17.79,30.91 16.98,31.41C14.34,33.08 12.78,30.58 12.47,30.29C12.34,30.17 12.04,30.94 12.3,31.77C13.54,35.78 17.97,35.05 19.24,33.13C19.47,34.73 25.12,37.62 28.47,32.39Z" style="fill:rgb(33,33,33);fill-rule:nonzero;"/>
        </g>
        <g id="Maple-syrup" serif:id="Maple syrup" transform="matrix(0.280123,0,0,0.280123,409.793,174.473)">
            <g transform="matrix(1,0,0,1,25.5808,-46.6615)">
                <path d="M514.852,526.682L524.419,588.261C524.419,588.261 608.421,626.754 614.419,665.922C622.677,719.846 573.964,911.8 573.964,911.8L374.875,911.8C374.875,911.8 326.162,719.846 334.419,665.922C340.417,626.754 424.419,588.261 424.419,588.261L433.917,526.682L514.852,526.682Z" style="fill:rgb(215,151,40);"/>
            </g>
            <g transform="matrix(1,0,0,1,25.5808,-46.6615)">
                <path d="M433.917,526.682L442.626,470.464L506.154,470.464L514.852,526.682L433.917,526.682Z" style="fill:rgb(240,244,255);"/>
            </g>
            <g transform="matrix(1,0,0,1,25.5808,-46.6615)">
                <path d="M434.39,470.464C434.39,470.464 421.635,433.748 434.419,426.768C447.757,419.485 501.091,419.485 514.419,426.768C527.201,433.752 514.39,470.464 514.39,470.464L434.39,470.464Z" style="fill:rgb(213,43,30);"/>
            </g>
        </g>
        <g id="Beaver-Hands" serif:id="Beaver Hands">
            <g transform="matrix(7.97948,0,0,7.97948,424.749,-2.90019)">
                <path d="M41.53,67.39C28.73,63.07 28.19,50.32 24.25,47.32C22.91,46.29 21.62,46.04 20.26,45.33C19.01,44.68 17.57,44.02 16.26,44.54C17.16,45.15 17.97,45.91 18.62,46.79C17.32,46.92 15.39,47.08 14.75,47.9C14.64,48.04 14.79,48.26 14.95,48.34C15.11,48.42 17.25,48.81 18.1,49.67C17.42,50.25 16.64,50.73 16.05,51.4C15.71,51.78 16.02,52.02 16.16,52.06C17.08,52.31 18.11,52.16 18.97,52.58C19.83,53 20.46,53.79 21.22,54.35C22.14,55.04 23.29,55.42 24.45,55.42C26.37,59.43 28.87,62.77 32.12,65.79C35.12,68.58 38.82,70.57 42.93,71.32C55.86,73.68 61.6,60.52 61.6,60.52C61.6,60.52 52.41,71.06 41.53,67.39Z" style="fill:rgb(130,91,78);fill-rule:nonzero;"/>
            </g>
            <g transform="matrix(7.97948,0,0,7.97948,425.749,-2.90019)">
                <path d="M6.93,47.01C8.63,44.35 11.63,43.52 14.07,43.9C14.18,43.92 14.48,44.03 14.56,44.1C14.72,44.25 14.65,44.54 14.47,44.68C14.3,44.82 14.06,44.85 13.85,44.91C12.63,45.21 11.53,46.14 11.32,47.38C12.19,47.02 13.23,47.1 14.04,47.57C14.26,47.7 14.5,47.96 14.37,48.19C14.3,48.32 14.13,48.37 13.98,48.42C12.92,48.76 12.2,49.87 12.03,50.97C12.6,50.85 13.19,50.72 13.77,50.82C14.35,50.92 15.12,51.41 15.06,51.86C14.99,52.34 13.69,52.02 13.1,53.05C12.69,53.77 12.47,54.64 11.83,55.16C11.24,55.64 10.39,55.74 9.66,55.52C8.93,55.31 8.3,54.82 7.8,54.25C6.09,52.3 5.72,49.29 6.93,47.01" style="fill:rgb(130,91,78);fill-rule:nonzero;"/>
            </g>
        </g>
    </g>
</svg>
